<svg width="43" height="38" viewBox="0 0 43 38" fill="none" xmlns="http://www.w3.org/2000/svg">
<path d="M36.4011 3.91154C33.6599 2.50522 30.7217 1.46576 27.6491 0.874696C27.6217 0.86872 27.5934 0.872571 27.568 0.885717C27.5427 0.898862 27.5215 0.920653 27.5075 0.948069C27.1313 1.70015 26.712 2.6805 26.4182 3.45499C23.1594 2.9011 19.8464 2.9011 16.5876 3.45499C16.2604 2.59665 15.8913 1.75971 15.4822 0.948069C15.4683 0.920315 15.4474 0.898032 15.4221 0.884194C15.3968 0.870355 15.3684 0.86562 15.3407 0.870619C12.2698 1.46168 9.33159 2.50114 6.58863 3.9095C6.56503 3.92076 6.54502 3.93996 6.5313 3.96453C0.955792 13.2891 -0.572456 22.3833 0.178231 31.3634C0.18032 31.3854 0.186321 31.4066 0.195869 31.4259C0.205417 31.4452 0.218313 31.462 0.233771 31.4755C3.48805 34.1708 7.11776 36.224 10.9709 37.5491C10.9978 37.5585 11.0265 37.5585 11.0534 37.5491C11.0802 37.5396 11.1039 37.5212 11.1214 37.4961C11.9506 36.2347 12.6853 34.8964 13.3179 33.4953C13.3267 33.4761 13.3318 33.455 13.3328 33.4335C13.3338 33.4119 13.3307 33.3903 13.3237 33.3702C13.3168 33.3501 13.3061 33.332 13.2924 33.317C13.2787 33.302 13.2624 33.2905 13.2445 33.2833C12.0871 32.7875 10.9657 32.1891 9.89057 31.4938C9.87126 31.4813 9.85498 31.4635 9.8432 31.442C9.83142 31.4205 9.82451 31.3961 9.82309 31.3708C9.82167 31.3456 9.82578 31.3203 9.83506 31.2973C9.84434 31.2743 9.85849 31.2543 9.87624 31.239C10.102 31.0495 10.3277 30.8518 10.5427 30.6541C10.5621 30.6363 10.5854 30.625 10.6101 30.6214C10.6347 30.6178 10.6598 30.6221 10.6825 30.6337C17.7181 34.229 25.3379 34.229 32.2911 30.6337C32.3139 30.6214 32.3392 30.6165 32.3642 30.6198C32.3892 30.623 32.413 30.6342 32.4327 30.652C32.6477 30.8518 32.8716 31.0495 33.0992 31.239C33.1171 31.254 33.1315 31.2737 33.141 31.2965C33.1506 31.3193 33.1551 31.3445 33.154 31.3697C33.1529 31.3949 33.1464 31.4195 33.1349 31.4411C33.1235 31.4628 33.1075 31.4809 33.0884 31.4938C32.017 32.1949 30.9026 32.788 29.7327 33.2813C29.7147 33.2887 29.6984 33.3004 29.6847 33.3156C29.671 33.3308 29.6603 33.3491 29.6534 33.3693C29.6464 33.3896 29.6434 33.4113 29.6444 33.433C29.6454 33.4547 29.6505 33.476 29.6593 33.4953C30.3042 34.8955 31.0424 36.2284 31.854 37.4941C31.8709 37.5201 31.8944 37.5395 31.9213 37.5497C31.9482 37.5599 31.9773 37.5604 32.0045 37.5512C35.8642 36.2297 39.4999 34.1755 42.7578 31.4755C42.7736 31.4628 42.787 31.4465 42.7969 31.4275C42.8068 31.4085 42.813 31.3873 42.8151 31.3654C43.7109 20.9831 41.3137 11.9622 36.4566 3.96861C36.4447 3.94263 36.425 3.92238 36.4011 3.91154ZM14.3696 25.895C12.2519 25.895 10.5051 23.7162 10.5051 21.0442C10.5051 18.3702 12.2179 16.1934 14.3696 16.1934C16.5375 16.1934 18.2682 18.3885 18.2341 21.0442C18.2341 23.7183 16.5213 25.895 14.3696 25.895ZM28.6577 25.895C26.5383 25.895 24.7932 23.7162 24.7932 21.0442C24.7932 18.3702 26.5042 16.1934 28.6577 16.1934C30.8256 16.1934 32.5563 18.3885 32.5223 21.0442C32.5223 23.7183 30.8274 25.895 28.6577 25.895Z" fill="#5584AC"/>
</svg>
