<svg width="40" height="36" viewBox="0 0 40 36" fill="none" xmlns="http://www.w3.org/2000/svg">
<path d="M39.914 7.49218C39.9331 7.46029 39.9399 7.42221 39.9328 7.3855C39.9258 7.34878 39.9055 7.31611 39.876 7.29396C39.868 7.28578 39.86 7.27761 39.852 7.27352L39.84 7.26943L27.774 1.10212C27.5907 1.01567 27.3918 0.969044 27.19 0.965208C26.9571 0.963692 26.7275 1.02227 26.5227 1.1355C26.3178 1.24874 26.1442 1.41298 26.018 1.613L19.07 13.1507L27.788 27.6248L39.914 7.49218ZM37.786 35.1674C39.008 35.7927 40 35.3554 40 34.1906V11.0744L28.382 30.3631L37.786 35.1674ZM15.244 10.5227V23.6543L26.666 29.4885L15.244 10.5227ZM1.108 30.0546L11.488 35.3575C11.7188 35.4824 11.9749 35.5509 12.236 35.5577C12.882 35.5577 13.334 35.0469 13.334 34.1906V7.43292C13.334 7.40824 13.3276 7.38401 13.3152 7.36278C13.3029 7.34156 13.2852 7.32414 13.264 7.31235L1.478 1.29421C1.29314 1.19311 1.08762 1.13781 0.878 1.13278C0.362 1.13278 0 1.53943 0 2.22401V28.2236C0 28.9204 0.5 29.744 1.108 30.0546Z" fill="#5584AC"/>
</svg>
