<svg width="39" height="40" viewBox="0 0 39 40" fill="none" xmlns="http://www.w3.org/2000/svg">
<path d="M19.5 0.868683C8.73275 0.868683 0 9.55342 0 20.2615C0 30.9695 8.73275 39.6543 19.5 39.6543C30.2673 39.6543 39 30.9695 39 20.2615C39 9.55342 30.2721 0.868683 19.5 0.868683ZM9.62 20.9128L9.70288 20.7819L14.7778 12.889C14.7947 12.863 14.8184 12.8421 14.8463 12.8284C14.8743 12.8147 14.9054 12.8086 14.9364 12.8109C14.9675 12.8133 14.9973 12.8238 15.0229 12.8415C15.0484 12.8592 15.0687 12.8834 15.0816 12.9116C15.9266 14.8008 16.6611 17.1506 16.3166 18.6131C16.1736 19.2143 15.7723 20.0288 15.3189 20.7819C15.2607 20.892 15.1973 20.9993 15.1288 21.1035C15.1123 21.1267 15.0904 21.1455 15.0649 21.1582C15.0393 21.1709 15.011 21.1771 14.9825 21.1762H9.77112C9.74002 21.1767 9.70936 21.1687 9.68242 21.1533C9.65547 21.1378 9.63323 21.1154 9.61806 21.0884C9.6029 21.0614 9.59537 21.0308 9.59629 20.9999C9.5972 20.9689 9.60652 20.9388 9.62325 20.9128H9.62ZM32.2302 23.6277C32.2307 23.6623 32.2209 23.6961 32.2021 23.7251C32.1833 23.7542 32.1564 23.777 32.1246 23.791C31.7297 23.9574 30.3859 24.5748 29.8269 25.3456C28.4001 27.3205 27.3114 30.1453 24.8739 30.1453H14.7111C13.8531 30.1441 13.0037 29.9747 12.2115 29.6468C11.4193 29.3189 10.6998 28.839 10.0942 28.2344C9.48862 27.6299 9.00874 26.9126 8.682 26.1236C8.35526 25.3345 8.18808 24.4892 8.19 23.6358V23.5195C8.19 23.4257 8.268 23.3482 8.3655 23.3482H14.0286C14.1424 23.3482 14.2236 23.45 14.2155 23.5615C14.1733 23.9267 14.2431 24.3033 14.4186 24.6443C14.7534 25.323 15.4521 25.7464 16.2045 25.7464H19.0093V23.5696H16.2337C16.2012 23.5692 16.1694 23.5601 16.1417 23.5431C16.1141 23.5261 16.0916 23.5019 16.0767 23.4731C16.0618 23.4444 16.0551 23.4121 16.0573 23.3798C16.0595 23.3476 16.0705 23.3165 16.0891 23.29L16.1915 23.1445C16.4515 22.7712 16.8269 22.1975 17.2006 21.5414C17.4541 21.0986 17.7011 20.6267 17.8994 20.1516C17.9384 20.0676 17.9692 19.9787 18.005 19.893C18.0586 19.7411 18.1139 19.5989 18.1529 19.4583C18.1911 19.3391 18.2264 19.2189 18.2585 19.0979C18.3511 18.6939 18.3901 18.2673 18.3901 17.8261C18.3901 17.6515 18.3836 17.4689 18.3674 17.2976C18.3593 17.1085 18.3349 16.9178 18.3121 16.7288C18.294 16.5596 18.2679 16.3913 18.2341 16.2245C18.1904 15.9706 18.1373 15.7183 18.0749 15.4682L18.0521 15.3713C18.0034 15.1967 17.9611 15.0319 17.9059 14.859C17.7511 14.3279 17.5733 13.8038 17.3729 13.2882C17.303 13.0942 17.2261 12.9028 17.1421 12.7145C17.0251 12.4268 16.9049 12.1666 16.796 11.9226C16.7418 11.818 16.6909 11.7119 16.6432 11.6042C16.5904 11.4881 16.5346 11.3733 16.4759 11.26C16.4369 11.1743 16.3897 11.0919 16.3589 11.0143L16.016 10.3873C15.9689 10.3017 16.0469 10.1966 16.1411 10.2241L18.2861 10.801H18.3024L18.5835 10.8818L18.8955 10.9691L19.0093 10.9998V9.73442C19.0093 9.12194 19.5 8.6258 20.1126 8.6258C20.2573 8.62542 20.4005 8.65414 20.5337 8.71024C20.6669 8.76634 20.7874 8.84866 20.8878 8.95225C21.0952 9.16037 21.212 9.44136 21.2127 9.73442V11.6155L21.4419 11.6786C21.4581 11.6866 21.4776 11.6947 21.4923 11.706C21.5475 11.7448 21.6287 11.8062 21.7311 11.8838C21.8124 11.9452 21.8985 12.0228 21.9993 12.1052C22.3201 12.3652 22.6313 12.6369 22.932 12.9197C23.2798 13.2413 23.6697 13.6178 24.0435 14.0364C24.1491 14.156 24.2499 14.2723 24.3555 14.4016C24.4562 14.5293 24.57 14.6537 24.6643 14.7766C24.7926 14.9446 24.9242 15.1192 25.0461 15.3002C25.0998 15.3858 25.1664 15.4747 25.2167 15.5603C25.3727 15.7898 25.506 16.0258 25.6344 16.2633C25.6896 16.3716 25.7432 16.4912 25.7904 16.6076C25.935 16.9259 26.0487 17.2475 26.1186 17.574C26.1417 17.6432 26.1575 17.7147 26.1657 17.7873V17.8034C26.1885 17.8956 26.1966 17.9974 26.2048 18.1008C26.2505 18.5785 26.1917 19.0603 26.0325 19.5132C25.9821 19.649 25.935 19.788 25.8732 19.9237C25.7514 20.1985 25.6116 20.478 25.4443 20.735C25.389 20.832 25.3224 20.9321 25.2606 21.0291C25.1908 21.1309 25.116 21.2279 25.0543 21.32C24.9649 21.4424 24.8711 21.5615 24.7731 21.6772C24.687 21.7935 24.6009 21.9099 24.5034 22.0149C24.3718 22.1733 24.2434 22.322 24.1052 22.4642C24.0273 22.5579 23.9428 22.6549 23.8518 22.7389C23.7673 22.8359 23.6763 22.9215 23.5983 22.9991C23.4618 23.1348 23.3545 23.2367 23.2603 23.3255L23.0376 23.5227C23.0066 23.5536 22.9645 23.5711 22.9206 23.5712H21.2127V25.7464H23.361C23.8404 25.7464 24.297 25.5783 24.6675 25.2648C24.7926 25.1565 25.3419 24.683 25.9935 23.9687C26.0147 23.9444 26.0432 23.9274 26.0747 23.9203L32.006 22.2121C32.032 22.2046 32.0595 22.2032 32.0861 22.208C32.1128 22.2128 32.138 22.2237 32.1597 22.2399C32.1815 22.256 32.1991 22.2769 32.2114 22.301C32.2236 22.325 32.2301 22.3516 32.2302 22.3785V23.6277Z" fill="#5584AC"/>
</svg>
